<svg xmlns="http://www.w3.org/2000/svg" width="19.345" height="12.734" viewBox="0 0 19.345 12.734">
  <g id="logo_-_gray" data-name="logo - gray" transform="translate(0 153.058)">
    <path id="Path_1" data-name="Path 1" d="M32.565-69.149c-.2-.147-.4-.285-.6-.428a1.187,1.187,0,0,1-.534-.71l-.063-.746a3.813,3.813,0,0,0-.117-.7,1.454,1.454,0,0,0-1.065-.938,2.629,2.629,0,0,0-1.541.106,1.929,1.929,0,0,0-.879.62,1.624,1.624,0,0,0-.281,1.308,1.189,1.189,0,0,1-.212.919,3.736,3.736,0,0,1-.442.432c-.21.19-.437.362-.637.562a.841.841,0,0,0-.185.908,1.613,1.613,0,0,0,.875.989,1.133,1.133,0,0,0,1.169-.055c.124-.078.237-.174.363-.249a2.077,2.077,0,0,1,.441-.229,2.013,2.013,0,0,1,1.337.09c.267.1.526.224.791.332a1.819,1.819,0,0,0,.862.172.921.921,0,0,0,.641-.307,1.936,1.936,0,0,0,.462-1.287.9.9,0,0,0-.381-.784" transform="translate(-23.791 -73.629)"/>
    <path id="Path_2" data-name="Path 2" d="M72.554-129.414a1.106,1.106,0,0,0,1.62-.393,2.509,2.509,0,0,0,.282-1.215,3.457,3.457,0,0,0-.168-1.081,2.248,2.248,0,0,0-.62-1.024,1.1,1.1,0,0,0-1.745.418,2.677,2.677,0,0,0-.241,1.091,3.513,3.513,0,0,0,.258,1.386,1.739,1.739,0,0,0,.615.819" transform="translate(-65.717 -18.016)"/>
    <path id="Path_3" data-name="Path 3" d="M77.74-151.834c0,.025.018.06.05.056.1-.012.03-.027.292-.092.091-.022.205-.01.294-.025a.057.057,0,0,0,.047-.076c-.008-.022-.013-.086-.021-.106a2.306,2.306,0,0,0-.231-.542c-.081-.167-.44-.525-.431-.32.015.354,0,.738,0,1.1" transform="translate(-71.273 -0.052)"/>
    <path id="Path_4" data-name="Path 4" d="M101.844-87.665a2.928,2.928,0,0,0,.356-1.421,3.334,3.334,0,0,0-.06-.57,1.771,1.771,0,0,0-.288-.755,1.137,1.137,0,0,0-1.163-.527,1.4,1.4,0,0,0-1.06.658,2.555,2.555,0,0,0-.332,1.361c.024.152.049.421.113.68a2.134,2.134,0,0,0,.476.944,1.084,1.084,0,0,0,1.444.192,1.522,1.522,0,0,0,.515-.562" transform="translate(-91.036 -56.94)"/>
    <path id="Path_5" data-name="Path 5" d="M128.285-128.862a1.134,1.134,0,0,0,1.055.267,1.087,1.087,0,0,0,.718-.581,3.05,3.05,0,0,0,.34-1.442c-.026-.237-.042-.476-.082-.71a2.084,2.084,0,0,0-.433-1.026.814.814,0,0,0-.849-.3,1.483,1.483,0,0,0-1.02.775,2.69,2.69,0,0,0-.33,1.156,2.871,2.871,0,0,0,.083.928,1.818,1.818,0,0,0,.517.928" transform="translate(-117.057 -18.69)"/>
    <path id="Path_6" data-name="Path 6" d="M144.28-151.323c.367,0,.417.154.479-.061a.9.9,0,0,0,.039-.311c.005-.165.006-.232,0-.4,0-.106,0-.314-.116-.4a.032.032,0,0,0-.045.006c-.163.232-.326.452-.474.68a.57.57,0,0,0-.12.456c.011.03.2.031.234.031" transform="translate(-132.048 -0.509)"/>
    <path id="Path_7" data-name="Path 7" d="M176.642-151.858c.011.079.012.192.122.19.055,0,.228-.075.326-.088a1.624,1.624,0,0,0,.175-.021c.048-.021-.011-.2-.014-.222a1.434,1.434,0,0,0-.126-.348c-.088-.2-.544-.64-.491-.444a7.952,7.952,0,0,1,.008.932" transform="translate(-161.936 -0.2)"/>
    <path id="Path_8" data-name="Path 8" d="M129.654-69.047c-.236-.2-.475-.4-.706-.611a1.1,1.1,0,0,1-.4-.634l-.078-.7c-.008-.14-.014-.28-.024-.42a1.013,1.013,0,0,0-.225-.589,1.811,1.811,0,0,0-.787-.551,2.314,2.314,0,0,0-1.259-.11,4.1,4.1,0,0,0-.741.194,1.086,1.086,0,0,0-.646.684,2.407,2.407,0,0,0-.088.681,3.936,3.936,0,0,1-.1.94,1.546,1.546,0,0,1-.5.782c-.191.157-.391.3-.585.457a1.137,1.137,0,0,0-.251,1.567,1.3,1.3,0,0,0,.36.385,1.483,1.483,0,0,0,.863.3,1.508,1.508,0,0,0,.812-.247l.612-.364a1.277,1.277,0,0,1,1.308-.054c.268.136.53.286.8.408a1.513,1.513,0,0,0,.9.147,1.534,1.534,0,0,0,.694-.287,1.346,1.346,0,0,0,.035-1.974" transform="translate(-112.822 -73.666)"/>
    <path id="Path_9" data-name="Path 9" d="M197.722-94.147a1.112,1.112,0,0,0-.484-.825,1.194,1.194,0,0,0-.7-.153,1.4,1.4,0,0,0-.93.348,2.932,2.932,0,0,0-1.008,2,1.455,1.455,0,0,0,.463,1.282,1.263,1.263,0,0,0,.792.346,1.209,1.209,0,0,0,.922-.377,3.254,3.254,0,0,0,.97-2.23c-.011-.151-.013-.271-.031-.388" transform="translate(-178.408 -53.112)"/>
    <path id="Path_10" data-name="Path 10" d="M170.819-129.024a1.2,1.2,0,0,0,.992-.386,1.586,1.586,0,0,0,.356-.747,2.741,2.741,0,0,0,.051-.829,3.119,3.119,0,0,0-.408-1.335,1.888,1.888,0,0,0-.655-.672,1.35,1.35,0,0,0-.93-.16.255.255,0,0,0-.209.126c-.074.13-.159.255-.22.391a3.858,3.858,0,0,0-.327,1.6,2.742,2.742,0,0,0,.269,1.262,1.231,1.231,0,0,0,1.08.745" transform="translate(-155.371 -18.231)"/>
    <path id="Path_11" data-name="Path 11" d="M213.6-115.051c.16-.006.121-.034.5.116.224.089.1-.312.074-.372a1.615,1.615,0,0,0-.234-.462,3.28,3.28,0,0,0-.416-.468c-.287-.218-.2.842-.161,1,.047.2.071.19.237.183" transform="translate(-195.573 -33.729)"/>
    <path id="Path_12" data-name="Path 12" d="M3.063-91.4a2.671,2.671,0,0,0,.061-1.132,2.711,2.711,0,0,0-.58-1.367A1.49,1.49,0,0,0,.5-94.12,1.33,1.33,0,0,0,0-92.993a2.685,2.685,0,0,0,.182.937,2.575,2.575,0,0,0,1.211,1.467,1.094,1.094,0,0,0,1.077.006,1.26,1.26,0,0,0,.593-.82" transform="translate(0 -53.753)"/>
    <path id="Path_13" data-name="Path 13" d="M8.967-113.326c.371-.148.333-.121.491-.115s.187.012.233-.182c.038-.16.123-1.211-.159-.995a3.248,3.248,0,0,0-.409.464,1.606,1.606,0,0,0-.23.458c-.023.06-.147.457.073.369" transform="translate(-8.103 -35.215)"/>
    <path id="Path_14" data-name="Path 14" d="M31.2-128.883c1.057.016,1.347-.885,1.4-1.735a1.1,1.1,0,0,0,.008-.184c-.079-.861-.047-2.366-1.327-2.218-.981.114-1.415,1.3-1.485,2.112-.08.925.284,2.008,1.406,2.025" transform="translate(-27.305 -18.362)"/>
    <path id="Path_15" data-name="Path 15" d="M46-151.878c.367,0,.417.154.479-.061a.9.9,0,0,0,.039-.311c.005-.165.006-.232,0-.4,0-.106,0-.314-.116-.4a.032.032,0,0,0-.045.007c-.163.232-.326.452-.474.68a.57.57,0,0,0-.12.456c.011.03.2.031.234.031" transform="translate(-41.942)"/>
  </g>
</svg>
